<?xml version="1.0" encoding="UTF-8"?> <svg xmlns="http://www.w3.org/2000/svg" xmlns:xlink="http://www.w3.org/1999/xlink" xmlns:xodm="http://www.corel.com/coreldraw/odm/2003" xml:space="preserve" width="190.89mm" height="38.7232mm" version="1.1" style="shape-rendering:geometricPrecision; text-rendering:geometricPrecision; image-rendering:optimizeQuality; fill-rule:evenodd; clip-rule:evenodd" viewBox="0 0 3363.99 682.41"> <defs> <style type="text/css"> .fil0 {fill:#FEFEFE} .fil1 {fill:#00AFEF} </style> </defs> <g id="Layer_x0020_1"> <metadata id="CorelCorpID_0Corel-Layer"></metadata> <path class="fil0" d="M280.99 119.47l73.22 187.62 -150.1 -0.89 76.89 -186.73zm-280.99 382.16l118.7 1.31 44.28 -105.6 229.26 -0.91 46.71 104.75 123.16 2.53 -220.7 -503.17 -122.95 -0.54 -218.46 501.63z"></path> <path class="fil1" d="M1796.35 547.55c169.82,-30.3 187.02,-67.42 431.87,-31.85 321.35,46.68 691.59,272.99 1004.4,106.34 49.8,-26.53 115.41,-77.61 131.36,-120.76 -233.5,176.34 -512.53,81.4 -777.84,-8.79 -184.82,-62.83 -434.63,-104.46 -628.71,-33.18 -52.9,19.43 -134.15,56.51 -161.1,88.25z"></path> <path class="fil0" d="M3068.46 278.08c12.17,-110 173.59,-99.22 179.27,1.7l-179.27 -1.7zm258.91 164.37c-10.78,-27.1 -38.17,-40.23 -54.1,-64.09 -37.66,20.34 -51.83,46.99 -119.75,37.83 -46.74,-6.3 -75.36,-29.07 -81.94,-72.72l283.54 -1.15c31.61,-257.33 -296.12,-301.01 -384.93,-119.41 -42.02,85.92 -17.08,197.57 78.38,255.18 90.16,54.4 231.43,34.82 278.8,-35.64z"></path> <path class="fil0" d="M1702.64 459.11c9.93,12.07 9.48,29.82 11.35,41.7l103.52 0.05c8.9,-28.84 6.47,-331.09 4.38,-381.23l-113.38 -0.18c-4.87,96.22 35.84,282.06 -80.37,289.54 -115.71,7.45 -77.06,-192.46 -80.8,-288.72l-115.23 -0.99c-8.33,171.11 -32.41,378.24 142.64,388.68 57.72,3.44 106.54,-13.02 127.88,-48.85z"></path> <path class="fil0" d="M956.66 406.34l-86.12 -40.05c-13.42,10.68 -39.41,63.32 -111.75,45.27 -43.24,-10.79 -71.46,-47.66 -71.83,-99.65 -0.35,-49.91 30.1,-91.5 70.42,-100.77 68.48,-15.74 83.28,17.29 113.56,44.36l88.25 -41.04c-68.14,-161.8 -387.77,-132.41 -388.6,97.48 -0.82,228.09 335.41,258.34 386.07,94.39z"></path> <path class="fil0" d="M1372.62 406.54l-85.18 -40.78c-25.74,27.43 -56.63,61.77 -116.49,44.67 -41.38,-11.82 -68.53,-52.69 -66.61,-104.9 1.79,-48.76 31.75,-84.78 69.11,-94.43 72.74,-18.78 99.7,31.01 114.02,42.85l86.58 -39.27c-64.05,-164.76 -387.96,-128.75 -386.18,97.23 1.77,224.33 321.32,261.63 384.75,94.63z"></path> <path class="fil0" d="M2689.27 127.56l-60.82 0.61 -1.02 81.69 61.74 5.37c3.12,76.1 -16.89,189.95 28.18,245.77 36.82,45.6 147.35,70.33 204.95,24.97l-24.31 -81.4c-43.49,18.27 -88.5,24.92 -93.22,-36.64 -3.2,-41.74 -1.3,-110.88 1.97,-153.07l94.36 -2.09 -0.52 -83.72 -95.45 -1.98 -0.4 -95.91 -115.43 0.99 -0.02 95.42z"></path> <path class="fil0" d="M2232.04 155.93l37.69 81.96c88.16,-42.79 203.33,-47.75 190.02,39.75 -45.09,3.56 -259.93,-17.02 -241.58,110.72l101.33 6.27c34.03,-63.53 20.85,-50.31 144.66,-53.96 -0.08,58.68 -6.68,44.86 -22.79,79.06l133.82 32.59c5.38,-42.91 3.86,-131.6 1.86,-177.88 -8.98,-208.02 -211.02,-169.11 -345.01,-118.52z"></path> <path class="fil0" d="M2042.87 166.05l-2.2 -47.44 -111.15 0.07 0.12 315.19 112.9 -33.17c15.06,-125.02 -23.51,-180.18 130.29,-185.71l1.4 -99.49c-61.6,-9.05 -108.14,23.32 -131.36,50.55z"></path> </g> </svg> 